<svg xmlns="http://www.w3.org/2000/svg" viewBox="0 0 300 47"><defs><style>.cls-1{fill:#ffffff;}.cls-2{fill:#ffffff;}</style></defs><title>Rityta 4</title><g id="head"><path class="cls-1" d="M83.53,17.93A7.7,7.7,0,0,0,78,16a7.7,7.7,0,0,0-5.53,1.93v9.8a6.41,6.41,0,0,0,5.08,1.93,8.94,8.94,0,0,0,6-1.93Zm0,27.37V34.56a19.41,19.41,0,0,1-6,.94c-4.14,0-11-1.8-11-7.46V17.62c0-5.71,7.37-7.46,11.41-7.46s11.37,1.75,11.37,7.46V45.3Z"/><path class="cls-1" d="M105.93,35.51c-4,0-11.42-1.75-11.42-7.46V10.52h5.89V27.73a8.87,8.87,0,0,0,11.06,0V10.52h5.84V28c0,5.71-7.32,7.46-11.37,7.46"/><path class="cls-1" d="M133.45,16a7.7,7.7,0,0,0-5.53,1.93v2H139v-2A7.71,7.71,0,0,0,133.45,16m-5.53,9.75v2a7.69,7.69,0,0,0,5.53,1.93,17.05,17.05,0,0,0,6.47-1.08c3.82-1.26,5.35,4.31,1.93,5.53a22.42,22.42,0,0,1-8.4,1.39c-4,0-11.42-1.75-11.42-7.46V17.62c0-5.71,7.37-7.46,11.42-7.46s11.37,1.75,11.37,7.46v8.13Z"/><path class="cls-1" d="M158.39,35.51a22.08,22.08,0,0,1-8.45-1.62v-6a22.62,22.62,0,0,0,8.45,1.75,7.77,7.77,0,0,0,5.53-1.93V26.38l-8.27-1.31c-2.38-.36-6.43-1.62-6.43-5.53V17.62c0-5.71,7.32-7.46,11.37-7.46A22,22,0,0,1,169,11.78v6A22.62,22.62,0,0,0,160.59,16a7.7,7.7,0,0,0-5.53,1.93v1.3l8.27,1.3c2.38.36,6.43,1.62,6.43,5.53v2c0,5.71-7.37,7.46-11.37,7.46"/><path class="cls-1" d="M187,35.15c-4,0-11.37-1.75-11.37-7.51V16.36a2.92,2.92,0,0,1-3-2.92,3,3,0,0,1,3-2.92V3.87a2.92,2.92,0,0,1,5.84,0v6.65H190v5.84h-8.45v11A7.7,7.7,0,0,0,187,29.31a2.92,2.92,0,1,1,0,5.84"/><path class="cls-2" d="M207.84,16a8.94,8.94,0,0,0-6,1.93v9.8a8.87,8.87,0,0,0,11.06,0V17.89A6.69,6.69,0,0,0,207.84,16m-.45,19.51c-4,0-11.42-1.75-11.42-7.46V2.92a3,3,0,0,1,3-2.92,2.92,2.92,0,0,1,2.92,2.92v8.14a20.78,20.78,0,0,1,6-.9c4.09,0,10.92,1.8,10.92,7.46V28c0,5.71-7.32,7.46-11.37,7.46"/><path class="cls-2" d="M239.17,24.72,233,26.16a41.55,41.55,0,0,0-4.81,1.17v1.12c1,.9,2.92,1.21,6.61,1.21a25.14,25.14,0,0,0,4.4-.54Zm-4.4,10.79c-4.85,0-12.49-1.35-12.49-6.52V26.7c0-4.67,6-5.44,9.39-6.25l7.5-1.75v-.76A7.7,7.7,0,0,0,233.64,16a32.79,32.79,0,0,0-9.17,1.8v-6a25.66,25.66,0,0,1,9.17-1.62c4,0,11.37,1.75,11.37,7.46V33.89a41.42,41.42,0,0,1-10.25,1.62"/><path class="cls-2" d="M261.3,35.51c-4,0-11.42-1.75-11.42-7.46V17.62c0-5.71,7.37-7.46,11.42-7.46a21.68,21.68,0,0,1,8.4,1.62v6A22.38,22.38,0,0,0,261.3,16a7.7,7.7,0,0,0-5.53,1.93v9.8a7.69,7.69,0,0,0,5.53,1.93,22.38,22.38,0,0,0,8.4-1.75v6a21.72,21.72,0,0,1-8.4,1.62"/><path class="cls-2" d="M292.22,35.15l-9-10.38-2.7,2.34v8h-5.89V2.92a3,3,0,0,1,3-2.92,2.91,2.91,0,0,1,2.92,2.92V19.6l10.07-8.72c2.88-2.47,6.56,1.84,3.73,4.27l-6.7,5.8L300,35.15Z"/><path class="cls-2" d="M22.08,35.72S.91,30.21,0,15.21C-.73,2.42,15.35-1.44,28.15,1.2a44.13,44.13,0,0,1,13,4.63c5.84,3.42,10.36,8,12.57,12.9A12.26,12.26,0,0,1,48.22,34.4c-1.12.64-4.71,2-4.71,2s1.4,1.43,7.94,4A172.23,172.23,0,0,0,68.4,45.64s-6.91.52-19.82-2.43c-21.75-5-36.3-18.84-26.29-32.37,1.47-2,.34-.39.34-.39s-4.69,1.1-7.06,5c-6.38,10.41,6.51,20.29,6.51,20.29"/></g></svg>